<svg xmlns="http://www.w3.org/2000/svg" viewBox="0 0 1200 900" role="img" aria-labelledby="title desc">
  <title id="title">SynoraCare Logo Concept 3</title>
  <desc id="desc">SC monogram with medical cross and leaf flourish.</desc>
  <defs>
    <linearGradient id="scG" x1="0" x2="1" y1="0" y2="1">
      <stop offset="0%" stop-color="#0E6F36"/>
      <stop offset="100%" stop-color="#95D854"/>
    </linearGradient>
  </defs>

  <rect width="1200" height="900" fill="white"/>

  <g transform="translate(600 300)">
    <circle r="230" fill="#F5FAF5"/>
    <circle r="230" fill="none" stroke="url(#scG)" stroke-width="22"/>

    <path d="M-150,-20 C-150,-112 -78,-174 19,-174 C67,-174 111,-160 149,-132" fill="none" stroke="#178744" stroke-width="48" stroke-linecap="round"/>
    <path d="M146,-20 C146,73 73,138 -25,138 C-70,138 -111,126 -146,104" fill="none" stroke="#8CD34F" stroke-width="48" stroke-linecap="round"/>

    <path d="M112,-112 V112" fill="none" stroke="#2BA34A" stroke-width="44" stroke-linecap="round"/>
    <path d="M112,-113 C45,-113 0,-70 0,0 C0,69 45,112 112,112" fill="none" stroke="#74C744" stroke-width="44" stroke-linecap="round"/>

    <path d="M-20,8 H6 V-18 H24 V8 H50 V24 H24 V50 H6 V24 H-20 Z" fill="#78CD45"/>

    <path d="M56,139 C94,120 137,108 182,103 C166,145 136,178 93,191 C77,195 65,201 56,212 Z" fill="#7DCE47"/>
  </g>

  <g transform="translate(600 655)">
    <text x="0" y="0" text-anchor="middle" font-size="88" font-weight="700" font-family="Avenir Next, Montserrat, Poppins, sans-serif">
      <tspan fill="#0B5A2C">SynoraCare </tspan><tspan fill="#80CF46">AI</tspan>
    </text>
  </g>
</svg>
