<svg xmlns="http://www.w3.org/2000/svg" viewBox="0 0 2000 700" role="img" aria-labelledby="title desc">
  <title id="title">SynoraCare Premium Logo 03</title>
  <desc id="desc">Elite legible wordmark with discreet healthcare insignia.</desc>
  <defs>
    <linearGradient id="leaf" x1="0" x2="1" y1="0" y2="1">
      <stop offset="0%" stop-color="#1C8443"/>
      <stop offset="100%" stop-color="#9AD958"/>
    </linearGradient>
  </defs>

  <rect width="2000" height="700" fill="none"/>

  <g transform="translate(1000 360)">
    <text x="0" y="0" text-anchor="middle" font-size="170" font-weight="700" font-family="Avenir Next, Helvetica Neue, Segoe UI, Arial, sans-serif" letter-spacing="0.5">
      <tspan fill="#0C5A2C">SynoraCare </tspan><tspan fill="#83CF4B">AI</tspan>
    </text>

    <g transform="translate(0 -210)">
      <path d="M0,86 C-28,58 -78,30 -78,-18 C-78,-52 -54,-76 -24,-76 C-10,-76 -2,-70 0,-58 C2,-70 10,-76 24,-76 C54,-76 78,-52 78,-18 C78,30 28,58 0,86 Z" fill="url(#leaf)"/>
      <path d="M-16,6 H-6 V-4 H6 V6 H16 V16 H6 V26 H-6 V16 H-16 Z" fill="#7DCB47"/>
    </g>

    <text x="0" y="84" text-anchor="middle" font-size="36" font-weight="500" fill="#3F714A" font-family="Avenir Next, Helvetica Neue, Segoe UI, Arial, sans-serif" letter-spacing="2.6">AI-POWERED CLINICAL WORKFLOWS</text>
  </g>
</svg>
