<svg xmlns="http://www.w3.org/2000/svg" viewBox="0 0 1500 900" role="img" aria-labelledby="title desc">
  <title id="title">SynoraCare AI Premium Logo 05</title>
  <desc id="desc">Premium trust-seal style logo with centered icon and clean typographic lockup.</desc>
  <defs>
    <linearGradient id="sealG" x1="0" x2="1" y1="0" y2="1">
      <stop offset="0%" stop-color="#0F6E38"/>
      <stop offset="100%" stop-color="#8CD450"/>
    </linearGradient>
  </defs>

  <rect width="1500" height="900" fill="none"/>

  <g transform="translate(750 290)">
    <circle r="220" fill="#FFFFFF"/>
    <circle r="220" fill="none" stroke="url(#sealG)" stroke-width="26"/>
    <circle r="180" fill="none" stroke="#DDEEDD" stroke-width="10"/>

    <circle cx="-72" cy="-132" r="18" fill="#127D3F"/>
    <circle cx="72" cy="-132" r="18" fill="#8AD14E"/>

    <path d="M-86,-98 C-154,-98 -189,-42 -178,22 C-169,77 -130,113 -78,162 C-82,85 -36,50 -8,18 C16,-10 9,-63 -26,-86 C-47,-100 -68,-101 -86,-90 Z" fill="#148140"/>
    <path d="M86,-98 C154,-98 189,-42 178,22 C169,77 130,113 78,162 C82,85 36,50 8,18 C-16,-10 -9,-63 26,-86 C47,-100 68,-101 86,-90 Z" fill="#8BD44F"/>

    <path d="M-32,3 H-8 V-21 H8 V3 H32 V21 H8 V45 H-8 V21 H-32 Z" fill="#78C945"/>
    <path d="M18,94 C61,80 102,71 143,66 C132,102 108,132 75,146 C50,156 33,167 18,186 Z" fill="#66BE4A"/>
  </g>

  <g transform="translate(750 680)">
    <text x="0" y="0" text-anchor="middle" font-size="108" font-weight="700" font-family="Avenir Next, Helvetica Neue, Segoe UI, Arial, sans-serif">
      <tspan fill="#0D5D2E">SynoraCare </tspan><tspan fill="#84D04A">AI</tspan>
    </text>
    <text x="0" y="58" text-anchor="middle" font-size="28" font-weight="500" fill="#436F4C" font-family="Avenir Next, Helvetica Neue, Segoe UI, Arial, sans-serif" letter-spacing="2.2">SECURE • LEGIBLE • ENTERPRISE-READY</text>
  </g>
</svg>
